<svg xmlns="http://www.w3.org/2000/svg" width="25" height="25"><rect width="100%" height="100%" fill="#011356"/><path fill="#001147" d="M25 30a5 5 0 1 1 0-10 5 5 0 0 1 0 10m0-25a5 5 0 1 1 0-10 5 5 0 0 1 0 10M0 30a5 5 0 1 1 0-10 5 5 0 0 1 0 10M0 5A5 5 0 1 1 0-5 5 5 0 0 1 0 5m12.5 12.5a5 5 0 1 1 0-10 5 5 0 0 1 0 10"/><path fill="#0b0854" d="M0 15a2.5 2.5 0 1 1 0-5 2.5 2.5 0 0 1 0 5m25 0a2.5 2.5 0 1 1 0-5 2.5 2.5 0 0 1 0 5M12.5 2.5a2.5 2.5 0 1 1 0-5 2.5 2.5 0 0 1 0 5m0 25a2.5 2.5 0 1 1 0-5 2.5 2.5 0 0 1 0 5"/></svg>